<?xml version="1.0" encoding="utf-8"?>
<!-- Generator: Adobe Illustrator 18.1.1, SVG Export Plug-In . SVG Version: 6.00 Build 0)  -->
<svg version="1.1" id="Layer_1" xmlns="http://www.w3.org/2000/svg" xmlns:xlink="http://www.w3.org/1999/xlink" x="0px" y="0px"
	 viewBox="0 0 100 100" enable-background="new 0 0 100 100" xml:space="preserve">
<path fill="#030000" d="M92.1,14.5H7.9c-4.2,0-7.6,3.4-7.6,7.6v56c0,4.2,3.4,7.6,7.6,7.6h84.2c4.2,0,7.6-3.4,7.6-7.6V22
	C99.7,17.8,96.3,14.5,92.1,14.5z M89.3,20.7L50,52.6L10.7,20.7H89.3z M92.1,79.3H7.9c-0.7,0-1.3-0.6-1.3-1.3V25.5L50,60.7l43.4-35.2
	V78C93.4,78.7,92.8,79.3,92.1,79.3z"/>
</svg>
