<?xml version="1.0" encoding="utf-8"?>
<!-- Generator: Adobe Illustrator 18.1.1, SVG Export Plug-In . SVG Version: 6.00 Build 0)  -->
<svg version="1.1" id="Layer_1" xmlns="http://www.w3.org/2000/svg" xmlns:xlink="http://www.w3.org/1999/xlink" x="0px" y="0px"
	 viewBox="0 0 100 100" enable-background="new 0 0 100 100" xml:space="preserve">
<g>
	<path fill="#030000" d="M76.7,38.7h-2V24.6C74.6,11,63.6,0,50,0S25.4,11,25.4,24.6v14.1h-2c-6.6,0-12,5.4-12,12v35.5
		c0,6.6,5.4,12,12,12h53.3c6.6,0,12-5.4,12-12V50.6C88.6,44,83.3,38.7,76.7,38.7z M31.6,24.6c0-10.1,8.2-18.4,18.4-18.4
		s18.4,8.2,18.4,18.4v14.1H31.6V24.6z M82.4,86.2c0,3.2-2.6,5.7-5.7,5.7H23.3c-3.2,0-5.7-2.6-5.7-5.7V50.6c0-3.2,2.6-5.7,5.7-5.7
		h53.3c3.2,0,5.7,2.6,5.7,5.7V86.2z"/>
	<path fill="#030000" d="M56.7,62.1c0-3.7-3-6.7-6.7-6.7s-6.7,3-6.7,6.7c0,2.5,1.4,4.7,3.5,5.8v8.3c0,1.7,1.4,3.1,3.1,3.1
		s3.1-1.4,3.1-3.1V68C55.2,66.8,56.7,64.7,56.7,62.1z"/>
</g>
</svg>
