<?xml version="1.0" encoding="utf-8"?>
<!-- Generator: Adobe Illustrator 18.1.1, SVG Export Plug-In . SVG Version: 6.00 Build 0)  -->
<svg version="1.1" id="Layer_1" xmlns="http://www.w3.org/2000/svg" xmlns:xlink="http://www.w3.org/1999/xlink" x="0px" y="0px"
	 viewBox="0 0 100 100" enable-background="new 0 0 100 100" xml:space="preserve">
<g>
	<path fill="#030000" d="M93.4,98.4H6.6c-1.7,0-3.1-1.4-3.1-3.1v-7c0-5,4.3-11,9.7-13.6l22-10.4C26.7,60.1,21.9,51,21.9,38.8V28.3
		C21.9,12.9,34.5,0.2,50,0.2s28.1,12.6,28.1,28.1v10.4c0,12.3-4.8,21.4-13.4,25.5l22,10.4c5.5,2.7,9.8,8.6,9.8,13.6v7
		C96.5,97,95.1,98.4,93.4,98.4z M9.8,92.2h80.5v-3.8c0-2.4-2.7-6.3-6.2-8L59.4,68.7c-2-1-1.9-2.5-1.9-6.2c0-1.3,0.9-2.5,2.2-2.9
		c10.6-3.3,12.1-14.5,12.1-20.8V28.3c0-12-9.8-21.9-21.9-21.9s-21.9,9.8-21.9,21.9v10.4c0,6.3,1.6,17.5,12.1,20.8
		c1.3,0.4,2.2,1.6,2.2,2.9c0.1,3.7,0.1,5.2-1.8,6.1L16,80.3c-3.5,1.7-6.2,5.6-6.2,8V92.2z"/>
	<rect x="3.5" y="92.2" fill="#030000" width="93" height="6.2"/>
</g>
</svg>
